<?xml version="1.0" standalone="no"?>
<!DOCTYPE svg PUBLIC "-//W3C//DTD SVG 20010904//EN"
 "http://www.w3.org/TR/2001/REC-SVG-20010904/DTD/svg10.dtd">
<svg version="1.0" xmlns="http://www.w3.org/2000/svg"
 width="779.000000pt" height="779.000000pt" viewBox="0 0 779.000000 779.000000"
 preserveAspectRatio="xMidYMid meet">
<metadata>
Created by potrace 1.11, written by Peter Selinger 2001-2013
</metadata>
<g transform="translate(0.000000,779.000000) scale(0.100000,-0.100000)"
fill="#000000" stroke="none">
<path d="M4350 4696 c0 -7 -14 -58 -30 -112 -26 -83 -28 -100 -17 -112 38 -37
281 -36 782 4 220 17 306 14 378 -13 69 -26 100 -70 105 -149 10 -158 -140
-325 -270 -300 -58 11 -132 52 -175 97 -48 51 -93 114 -93 132 1 7 30 55 65
107 35 52 63 95 62 96 -1 1 -31 -1 -65 -4 -57 -4 -63 -7 -59 -24 6 -22 -9 -71
-31 -105 l-14 -23 -30 25 c-139 117 -334 34 -392 -167 -29 -101 -13 -224 43
-321 37 -64 41 -49 -53 -192 -63 -95 -76 -130 -48 -130 7 0 29 22 50 50 20 27
59 63 86 80 46 28 56 30 145 30 108 -1 179 -21 386 -113 131 -58 207 -81 212
-65 3 7 31 50 63 97 52 74 57 86 43 95 -13 7 -26 -1 -60 -35 -46 -48 -65 -52
-121 -28 -343 148 -455 170 -584 115 -80 -34 -83 -44 43 141 49 73 107 158
127 188 20 30 40 59 43 63 3 5 34 -21 68 -56 43 -45 81 -73 123 -92 55 -25 69
-27 147 -23 71 4 96 10 147 36 123 62 222 210 232 344 8 119 -36 190 -148 239
-52 23 -66 24 -235 23 -99 0 -256 -8 -350 -17 -346 -33 -478 -34 -521 -3 -15
11 -18 25 -16 75 2 55 1 61 -18 61 -11 0 -20 -6 -20 -14z m513 -460 c26 -24
47 -49 47 -54 0 -6 -44 -76 -97 -156 -110 -166 -105 -164 -161 -58 -58 109
-51 205 18 274 34 35 42 38 92 38 51 0 58 -3 101 -44z"/>
<path d="M1587 4589 c-141 -34 -247 -165 -247 -304 0 -81 24 -134 104 -223 63
-71 76 -104 55 -141 -11 -19 -24 -27 -51 -29 -30 -3 -42 3 -72 34 -29 30 -37
34 -42 20 -9 -22 2 -58 27 -89 29 -38 94 -38 138 -1 41 34 78 99 87 150 8 52
-7 82 -81 160 -95 100 -120 177 -82 251 33 62 69 78 191 81 l109 4 -6 -29 c-4
-15 -20 -94 -37 -175 -41 -201 -69 -294 -133 -439 -104 -235 -192 -367 -330
-496 -155 -144 -367 -219 -550 -193 -225 32 -364 119 -438 274 -75 157 -40
309 91 399 162 111 416 84 744 -79 61 -30 132 -69 158 -86 l47 -30 46 26 c25
15 45 31 45 35 0 11 -80 65 -175 117 -95 53 -202 98 -310 130 -79 24 -107 28
-235 28 -138 1 -148 0 -215 -28 -134 -55 -239 -158 -273 -266 -21 -70 -21
-197 1 -269 77 -249 412 -399 716 -321 143 36 253 103 385 234 191 189 377
497 469 776 50 149 109 402 112 475 0 12 -200 16 -248 4z"/>
<path d="M3404 4548 c-28 -37 -44 -71 -53 -113 -8 -33 -24 -82 -38 -108 -21
-43 -22 -48 -7 -45 27 5 119 133 137 191 18 56 23 127 9 127 -4 0 -26 -24 -48
-52z"/>
<path d="M5900 4377 c-33 -17 -40 -71 -11 -86 24 -13 65 0 75 24 11 30 6 54
-13 65 -24 12 -21 12 -51 -3z"/>
<path d="M2150 4106 c0 -108 2 -196 5 -196 3 0 62 33 132 73 69 39 141 81 161
92 20 11 37 25 39 32 3 6 -23 39 -57 73 -70 70 -141 106 -225 116 l-55 7 0
-197z m100 54 c0 -5 -5 -10 -11 -10 -5 0 -7 5 -4 10 3 6 8 10 11 10 2 0 4 -4
4 -10z m-23 -56 c-3 -3 -12 -4 -19 -1 -8 3 -5 6 6 6 11 1 17 -2 13 -5z m93
-15 c0 -5 -4 -9 -10 -9 -5 0 -10 7 -10 16 0 8 5 12 10 9 6 -3 10 -10 10 -16z
m-93 -55 c8 -21 -13 -42 -28 -27 -13 13 -5 43 11 43 6 0 13 -7 17 -16z"/>
<path d="M2030 4254 c-74 -13 -195 -91 -241 -155 -19 -27 -20 -32 -5 -47 14
-16 13 -18 -11 -17 -24 0 -29 -6 -46 -60 -10 -33 -19 -87 -19 -120 0 -62 36
-195 52 -195 16 0 60 23 60 32 0 4 7 8 16 8 24 0 0 -26 -30 -34 -45 -11 -39
-34 23 -96 68 -68 144 -106 222 -111 l54 -4 3 179 c2 107 -1 183 -7 189 -6 6
-48 -13 -118 -53 -133 -78 -123 -72 -123 -67 0 5 86 57 173 106 31 18 57 36
57 41 0 5 -26 23 -57 42 -113 65 -138 79 -173 96 -36 17 -52 33 -45 41 3 2 13
-3 22 -11 42 -36 255 -150 264 -141 6 6 9 86 7 194 l-3 184 -25 1 c-14 1 -36
0 -50 -2z m30 -144 c0 -5 -4 -10 -10 -10 -5 0 -10 5 -10 10 0 6 5 10 10 10 6
0 10 -4 10 -10z m-104 -51 c10 -17 -13 -36 -27 -22 -12 12 -4 33 11 33 5 0 12
-5 16 -11z m-91 -119 c3 -5 1 -10 -4 -10 -6 0 -11 5 -11 10 0 6 2 10 4 10 3 0
8 -4 11 -10z m40 -100 c0 -22 -29 -18 -33 3 -3 14 1 18 15 15 10 -2 18 -10 18
-18z m155 -120 c0 -5 -4 -10 -10 -10 -5 0 -10 5 -10 10 0 6 5 10 10 10 6 0 10
-4 10 -10z m-37 -77 c8 -7 -11 -33 -24 -33 -5 0 -9 9 -9 20 0 19 20 27 33 13z"/>
<path d="M5763 4137 c-78 -32 -103 -46 -103 -61 0 -16 5 -17 33 -11 60 13 62
12 59 -20 -3 -26 -32 -98 -93 -230 -48 -104 -78 -188 -84 -232 -3 -26 -8 -58
-11 -71 -6 -29 4 -27 124 26 57 25 82 41 80 52 -2 11 -14 14 -46 12 -23 -2
-42 -1 -42 2 0 7 62 160 88 216 50 109 66 150 93 229 31 91 36 132 17 130 -7
0 -59 -20 -115 -42z"/>
<path d="M2935 4161 c-51 -12 -158 -77 -221 -135 -72 -65 -132 -151 -175 -248
-28 -63 -32 -85 -33 -161 -1 -82 1 -90 23 -108 31 -25 112 -25 169 1 86 39
216 155 250 224 22 44 30 116 13 116 -5 0 -28 -33 -50 -73 -84 -152 -212 -245
-277 -202 -49 32 -24 193 48 313 19 30 21 32 33 15 33 -45 198 7 286 89 72 67
100 146 60 168 -22 11 -80 12 -126 1z m28 -82 c17 -28 -17 -81 -74 -113 -59
-33 -189 -52 -174 -25 64 112 213 195 248 138z"/>
<path d="M3618 4160 c-67 -9 -95 -25 -160 -93 -62 -64 -85 -129 -69 -194 7
-25 23 -67 36 -94 35 -69 34 -137 -2 -171 -38 -35 -66 -48 -104 -48 -37 0 -96
36 -105 63 -8 24 -31 21 -38 -5 -8 -31 -7 -81 2 -94 25 -37 113 -45 177 -15
54 25 122 86 157 140 37 58 38 128 4 203 -57 127 -58 160 -4 210 26 24 38 28
72 26 43 -3 49 -14 32 -64 -4 -15 -2 -23 8 -27 10 -4 25 9 46 39 48 72 73 124
58 124 -7 0 -22 2 -33 4 -11 2 -46 0 -77 -4z"/>
<path d="M7545 4148 c-144 -48 -256 -107 -343 -182 -77 -66 -157 -164 -197
-240 -30 -58 -35 -77 -35 -134 0 -37 4 -73 9 -81 6 -9 26 -13 56 -13 64 2 157
57 263 157 l80 75 -34 -90 c-19 -50 -34 -102 -34 -116 0 -25 2 -26 36 -21 41
7 204 83 204 96 0 21 -27 31 -46 16 -10 -8 -29 -15 -42 -15 -29 0 -29 -1 56
209 4 11 -3 13 -35 9 l-40 -6 28 52 c41 74 47 130 19 168 -12 16 -19 33 -15
36 4 4 60 7 125 7 114 0 119 1 130 23 5 13 10 32 10 42 0 18 -7 20 -82 19 -46
0 -96 -5 -113 -11z m-85 -96 c0 -20 -51 -151 -76 -197 -88 -159 -245 -308
-293 -278 -11 7 -17 28 -19 63 -7 118 129 301 284 383 67 35 104 45 104 29z"/>
<path d="M6045 4108 c-10 -24 -31 -72 -46 -107 -34 -74 -35 -81 -11 -81 10 0
28 20 45 51 39 70 65 79 226 79 l130 0 -20 -35 c-36 -61 -175 -182 -247 -215
-57 -27 -78 -31 -154 -32 l-88 -1 -31 -56 c-82 -144 -77 -131 -49 -131 11 0
27 11 36 25 32 48 57 43 131 -25 79 -73 114 -90 183 -90 95 0 151 43 211 162
39 77 44 144 13 184 -35 47 -41 41 -37 -38 9 -131 -48 -228 -133 -228 -35 0
-71 22 -146 88 l-57 50 50 11 c127 28 252 129 377 309 40 56 72 107 72 112 0
6 -85 10 -218 10 l-219 0 -18 -42z"/>
<path d="M6611 4092 c-13 -31 -34 -80 -46 -109 -13 -28 -21 -54 -17 -57 13
-14 30 -3 49 32 12 20 33 48 48 62 25 24 33 25 177 28 l151 3 -63 -75 c-73
-88 -144 -145 -224 -181 -49 -21 -74 -26 -148 -26 l-89 -1 -26 -51 c-14 -29
-34 -64 -44 -79 -41 -57 -7 -82 38 -28 13 17 33 30 42 30 10 0 38 -19 62 -43
80 -77 114 -97 167 -104 108 -12 173 26 237 142 30 53 35 71 35 126 0 65 -17
109 -43 109 -9 0 -11 -24 -9 -84 3 -74 0 -90 -22 -135 -28 -54 -65 -81 -113
-81 -33 0 -54 13 -137 84 l-59 50 64 21 c35 11 84 31 109 44 48 25 173 145
212 204 13 19 42 62 66 95 23 34 42 66 42 71 0 8 -72 11 -217 11 l-218 0 -24
-58z"/>
<path d="M2421 4021 c-12 -12 -27 -21 -34 -21 -7 0 -36 -16 -66 -35 -29 -19
-54 -35 -56 -35 -10 0 -125 -74 -125 -80 0 -4 32 -27 70 -50 39 -23 70 -44 70
-46 0 -6 -31 11 -88 47 -25 16 -52 29 -59 29 -11 0 -13 -37 -11 -187 l3 -188
50 3 c88 5 193 64 255 142 l31 39 -43 27 c-24 15 -37 29 -31 31 7 3 22 -5 35
-17 32 -29 49 -22 69 30 37 97 37 164 1 295 -10 37 -43 44 -71 16z m-36 -154
c0 -26 -20 -25 -23 2 -3 16 1 22 10 19 7 -3 13 -12 13 -21z m-15 -161 c0 -9
-41 8 -52 22 -11 13 -8 12 20 -2 17 -9 32 -18 32 -20z m-160 0 c0 -15 -24 -28
-34 -19 -13 14 -5 33 14 33 11 0 20 -6 20 -14z"/>
</g>
</svg>
